<?xml version="1.0" encoding="UTF-8" standalone="no"?>
<!-- Created with Inkscape (http://www.inkscape.org/) -->

<svg
   xmlns:dc="http://purl.org/dc/elements/1.1/"
   xmlns:cc="http://creativecommons.org/ns#"
   xmlns:rdf="http://www.w3.org/1999/02/22-rdf-syntax-ns#"
   xmlns:svg="http://www.w3.org/2000/svg"
   xmlns="http://www.w3.org/2000/svg"
   xmlns:xlink="http://www.w3.org/1999/xlink"
   xmlns:sodipodi="http://sodipodi.sourceforge.net/DTD/sodipodi-0.dtd"
   xmlns:inkscape="http://www.inkscape.org/namespaces/inkscape"
   inkscape:version="0.91 r13725"
   version="1.1"
   id="svg2"
   viewBox="0 0 744.09448819 1052.3622047"
   height="297mm"
   width="210mm"
   inkscape:export-filename="D:\GitHub\SpringNodes\_misc\Logo1.png"
   inkscape:export-xdpi="300"
   inkscape:export-ydpi="300"
   sodipodi:docname="logo1.svg">
  <defs
     id="defs4">
    <inkscape:path-effect
       effect="spiro"
       id="path-effect5305"
       is_visible="true" />
    <inkscape:path-effect
       effect="spiro"
       id="path-effect5301"
       is_visible="true" />
    <linearGradient
       inkscape:collect="always"
       id="linearGradient4179">
      <stop
         style="stop-color:#0000ff;stop-opacity:1;"
         offset="0"
         id="stop4181" />
      <stop
         style="stop-color:#0000ff;stop-opacity:0;"
         offset="1"
         id="stop4183" />
    </linearGradient>
    <linearGradient
       inkscape:collect="always"
       xlink:href="#linearGradient4179"
       id="linearGradient4185"
       x1="112.31934"
       y1="388.88214"
       x2="371.01074"
       y2="388.88214"
       gradientUnits="userSpaceOnUse" />
    <filter
       inkscape:collect="always"
       style="color-interpolation-filters:sRGB"
       id="filter6793"
       x="-0.0070973959"
       width="1.0141948"
       y="-0.038804935"
       height="1.0776099">
      <feGaussianBlur
         inkscape:collect="always"
         stdDeviation="0.76501472"
         id="feGaussianBlur6795" />
    </filter>
  </defs>
  <sodipodi:namedview
     inkscape:window-maximized="1"
     inkscape:window-y="-4"
     inkscape:window-x="-4"
     inkscape:window-height="1027"
     inkscape:window-width="1920"
     showguides="false"
     showgrid="false"
     inkscape:current-layer="layer1"
     inkscape:document-units="px"
     inkscape:cy="615.2123"
     inkscape:cx="279.07063"
     inkscape:zoom="1.979899"
     inkscape:pageshadow="2"
     inkscape:pageopacity="0.0"
     borderopacity="1.0"
     bordercolor="#666666"
     pagecolor="#ffffff"
     id="base" />
  <metadata
     id="metadata7">
    <rdf:RDF>
      <cc:Work
         rdf:about="">
        <dc:format>image/svg+xml</dc:format>
        <dc:type
           rdf:resource="http://purl.org/dc/dcmitype/StillImage" />
        <dc:title></dc:title>
      </cc:Work>
    </rdf:RDF>
  </metadata>
  <g
     inkscape:label="Layer 1"
     inkscape:groupmode="layer"
     id="layer1">
    <g
       id="g4924"
       transform="translate(5.555839,18.182746)">
      <path
         inkscape:connector-curvature="0"
         d="m 123.25671,382.03617 c 5.95608,0.18516 11.91763,0.17795 17.87624,0.20325 9.11232,0.064 18.22448,-0.0439 27.33668,0.0275 9.99183,0.11496 19.98175,-0.0307 29.97197,-0.19122 10.48386,-0.23432 20.97149,-0.12465 31.45521,-0.32621 7.93949,-0.22053 15.87944,-0.40804 23.82148,-0.5022 6.95611,-0.0683 13.91264,-0.0665 20.86901,-0.0685 1.17082,6e-4 2.34164,0.001 3.51246,0.002 1.17854,5.6e-4 2.35719,0.0167 3.53564,0.002 4.68886,-0.0604 9.37578,-0.31376 14.05721,-0.56609 6.3075,-0.35992 12.61592,-0.68003 18.93131,-0.85941 5.02305,-0.126 10.04795,-0.14109 15.0723,-0.1512 4.45756,-0.004 8.91512,-0.006 13.37267,-0.005 4.01897,-0.01 8.03787,0.0538 12.05393,-0.12173 2.27427,-0.11477 4.54467,-0.29243 6.81834,-0.41659 0.90673,-0.0567 1.81533,-0.0522 2.72333,-0.0514 0.94098,-0.006 1.87855,-0.12454 2.81724,-0.19202 0.74885,-0.0542 1.49982,-0.0574 2.25018,-0.0609 0.83228,-8.4e-4 1.66456,0.002 2.49685,0.001 1.28094,0.0102 2.5619,0.0152 3.84288,0.019 0.99354,0.004 1.98642,0.0186 2.97817,-0.0444 0,0 -2.96829,2.17811 -2.96829,2.17811 l 0,0 c -0.98937,0.0308 -1.97864,0.007 -2.96843,0.0158 -1.29766,0.004 -2.59531,0.009 -3.89296,0.0171 -0.83316,-0.002 -1.66636,-0.002 -2.4995,0.004 -0.74377,0.008 -1.48775,0.0237 -2.22996,0.0754 -0.94233,0.066 -1.88337,0.18046 -2.82921,0.1689 -0.89596,0.004 -1.79187,0.0145 -2.68737,0.0451 -2.2217,0.0791 -4.44138,0.20416 -6.66238,0.29969 -4.00442,0.14086 -8.01092,0.0685 -12.01713,0.0778 -4.44855,-0.003 -8.89709,-0.0134 -13.34565,-0.0141 -5.00128,0.002 -10.00299,0.006 -15.0034,0.11155 -6.28468,0.15603 -12.56316,0.4482 -18.8397,0.80307 -7.03256,0.37015 -14.0705,0.6565 -21.11473,0.54861 -6.95156,0.003 -13.90323,0.007 -20.85461,0.0622 -7.88637,0.0764 -15.77148,0.22122 -23.65651,0.384 -10.45533,0.13305 -20.91298,0.0175 -31.36743,0.26251 -10.04014,0.1759 -20.08,0.37777 -30.12244,0.29193 -9.10834,-0.0551 -18.21718,-0.0669 -27.32562,-0.0329 -6.14519,0.0258 -12.29286,0.0229 -18.43577,0.20326 0,0 3.02799,-2.19996 3.02799,-2.19996 z"
         id="path4882"
         style="opacity:1;fill:#800000;fill-opacity:1;stroke:none;stroke-width:0.5;stroke-linecap:round;stroke-linejoin:round;stroke-opacity:1" />
      <g
         style="font-style:normal;font-variant:normal;font-weight:normal;font-stretch:normal;font-size:50px;line-height:125%;font-family:Corbel;-inkscape-font-specification:'Corbel, Normal';text-align:start;letter-spacing:0px;word-spacing:0px;writing-mode:lr-tb;text-anchor:start;opacity:1;fill:#535353;fill-opacity:0.64673911;stroke:none;stroke-width:1px;stroke-linecap:butt;stroke-linejoin:miter;stroke-opacity:1;filter:url(#filter6793)"
         id="text4149"
         transform="translate(2,1.5580583)">
        <path
           d="m 124.68982,359.88077 q 0,0.95215 0.41504,1.5625 0.41504,0.61035 1.09863,1.00097 0.70801,0.36622 1.61133,0.61036 0.92773,0.24414 1.9043,0.43945 1.34277,0.29297 2.53906,0.65918 1.19629,0.3418 2.19726,1.0498 1.02539,0.70801 1.63575,1.92871 0.63476,1.19629 0.63476,3.125 0,1.75782 -0.68359,3.125 -0.6836,1.34278 -1.92871,2.27051 -1.24512,0.90332 -2.97852,1.36719 -1.7334,0.48828 -3.80859,0.48828 -1.26953,0 -2.31934,-0.14648 -1.02539,-0.12207 -1.83105,-0.3418 -0.78125,-0.19531 -1.34278,-0.41504 -0.56152,-0.21973 -0.92773,-0.41504 l 0,-3.17383 q 1.46484,0.58594 2.90527,0.92774 1.44043,0.34179 3.17383,0.34179 1.36719,0 2.46582,-0.24414 1.09863,-0.24414 1.87988,-0.708 0.80567,-0.48828 1.22071,-1.19629 0.43945,-0.73242 0.43945,-1.68457 0,-0.97657 -0.39062,-1.61133 -0.39063,-0.63477 -1.04981,-1.04981 -0.65918,-0.41503 -1.53809,-0.68359 -0.85449,-0.26855 -1.80664,-0.48828 -1.24511,-0.26856 -2.53906,-0.63477 -1.26953,-0.36621 -2.31933,-1.02539 -1.04981,-0.65918 -1.70899,-1.78222 -0.63476,-1.14746 -0.63476,-2.92969 0,-1.83106 0.65918,-3.17383 0.65918,-1.34277 1.78222,-2.22168 1.12305,-0.87891 2.61231,-1.31836 1.48925,-0.43945 3.14941,-0.43945 1.92871,0 3.56445,0.36621 1.66016,0.36621 3.00293,0.92773 l 0,3.22266 q -1.46484,-0.56152 -2.97851,-0.90332 -1.48926,-0.36621 -3.07617,-0.39063 -1.34278,0 -2.29493,0.26856 -0.95214,0.26855 -1.5625,0.75684 -0.61035,0.46386 -0.90332,1.12304 -0.26855,0.63477 -0.26855,1.41602 z"
           style="fill:#535353;fill-opacity:0.64673911;stroke:none;stroke-opacity:1"
           id="path4968"
           inkscape:connector-curvature="0" />
        <path
           d="m 159.06482,365.08096 q 0,-2.02636 -0.43945,-3.63769 -0.41504,-1.61133 -1.26954,-2.73438 -0.85449,-1.14746 -2.0996,-1.75781 -1.24512,-0.61035 -2.88086,-0.61035 -1.17188,0 -2.14844,0.31738 -0.95215,0.31738 -1.7334,0.80567 -0.78125,0.48828 -1.34277,1.0498 -0.56153,0.56152 -0.90332,1.00098 l 0,12.13379 q 1.19629,1.2207 2.70996,1.92871 1.53808,0.708 3.2959,0.708 1.07421,0 2.2705,-0.39062 1.19629,-0.41504 2.19727,-1.44043 1.02539,-1.0498 1.68457,-2.83203 0.65918,-1.78223 0.65918,-4.54102 z m 3.95508,-0.0488 q 0,2.41699 -0.48828,4.29687 -0.46387,1.85547 -1.24512,3.24707 -0.78125,1.3916 -1.83106,2.34375 -1.0498,0.92773 -2.17285,1.51367 -1.12304,0.56153 -2.29492,0.80567 -1.14746,0.26855 -2.17285,0.26855 -2.12402,0 -3.68652,-0.68359 -1.5625,-0.70801 -2.80762,-2.0752 l -0.0732,0 0,13.50098 -3.78418,0 0,-34.5459 2.85644,0 0.80567,2.63672 0.0732,0 q 0.31738,-0.48828 0.80566,-0.95215 0.5127,-0.46387 1.34278,-0.97656 0.85449,-0.53711 2.02636,-0.92774 1.19629,-0.39062 2.58789,-0.39062 1.95313,0 3.75977,0.65918 1.83105,0.65918 3.22266,2.09961 1.3916,1.44043 2.22168,3.71094 0.85449,2.24609 0.85449,5.46875 z"
           style="fill:#535353;fill-opacity:0.64673911;stroke:none;stroke-opacity:1"
           id="path4970"
           inkscape:connector-curvature="0" />
        <path
           d="m 181.74548,356.78018 -0.29297,0 q -1.34277,0 -2.63671,0.24414 -1.29395,0.24414 -2.44141,0.75684 -1.12305,0.48828 -2.05078,1.2207 -0.90332,0.73242 -1.51367,1.7334 l 0,16.16211 -3.78418,0 0,-23.19336 2.92968,0 0.73243,3.68652 0.0732,0 q 0.56152,-0.90332 1.36719,-1.68457 0.83007,-0.78125 1.85546,-1.36718 1.0254,-0.58594 2.2461,-0.90332 1.2207,-0.3418 2.56347,-0.3418 0.24415,0 0.48829,0.0244 0.26855,0 0.46386,0.0244 l 0,3.63769 z"
           style="fill:#535353;fill-opacity:0.64673911;stroke:none;stroke-opacity:1"
           id="path4972"
           inkscape:connector-curvature="0" />
        <path
           d="m 186.06677,376.89737 0,-23.19336 3.78418,0 0,23.19336 -3.78418,0 z m -0.0976,-28.58887 0,-4.22363 3.97949,0 0,4.22363 -3.97949,0 z"
           style="fill:#535353;fill-opacity:0.64673911;stroke:none;stroke-opacity:1"
           id="path4974"
           inkscape:connector-curvature="0" />
        <path
           d="m 201.10583,356.92667 0.0733,0 q 0.63476,-0.80567 1.3916,-1.48926 0.78125,-0.70801 1.7334,-1.2207 0.95215,-0.53711 2.07519,-0.83008 1.14746,-0.29297 2.49024,-0.29297 1.58691,0 2.97851,0.43945 1.3916,0.43945 2.41699,1.41602 1.0254,0.97656 1.61133,2.56347 0.61035,1.5625 0.61035,3.85743 l 0,15.52734 -3.78418,0 0,-14.91699 q 0,-3.00293 -1.17187,-4.32129 -1.14746,-1.31836 -3.36914,-1.31836 -1.95313,0 -3.78418,1.09863 -1.83106,1.07422 -3.14941,2.97852 l 0,16.47949 -3.78418,0 0,-23.19336 2.92968,0 0.73242,3.22266 z"
           style="fill:#535353;fill-opacity:0.64673911;stroke:none;stroke-opacity:1"
           id="path4976"
           inkscape:connector-curvature="0" />
        <path
           d="m 226.42322,365.44717 q 0,2.73438 0.65918,4.46778 0.65918,1.7334 1.66015,2.70996 1.02539,0.95215 2.22168,1.31836 1.19629,0.34179 2.27051,0.34179 1.75781,0 3.2959,-0.708 1.53809,-0.70801 2.70996,-1.92871 l 0,-12.13379 q -0.31738,-0.43946 -0.87891,-1.00098 -0.56152,-0.56152 -1.31836,-1.02539 -0.73242,-0.48828 -1.68457,-0.80566 -0.95214,-0.3418 -2.07519,-0.3418 -1.68457,0 -2.97852,0.68359 -1.26953,0.65918 -2.14843,1.85547 -0.8545,1.19629 -1.29395,2.88086 -0.43945,1.66016 -0.43945,3.68652 z m 6.37207,-12.35351 q 1.51367,0.0244 2.63672,0.39062 1.12304,0.36621 1.92871,0.92774 0.80566,0.53711 1.26953,1.07422 0.48828,0.53711 0.65918,0.85449 l 0.0976,0 0.78125,-2.63672 2.85645,0 0,24.56055 q 0,2.68554 -0.87891,4.66308 -0.8789,2.00196 -2.46582,3.32032 -1.58691,1.31835 -3.833,1.95312 -2.22168,0.65918 -4.93164,0.65918 -2.29493,0 -4.10157,-0.41504 -1.80664,-0.39062 -2.83203,-0.95215 l 0,-3.19824 q 0.83008,0.3418 1.61133,0.56152 0.78125,0.24414 1.61133,0.39063 0.83008,0.1709 1.68457,0.24414 0.8789,0.0732 1.92871,0.0732 4.07715,0 6.25,-1.9043 2.17285,-1.90429 2.17285,-5.81054 l 0,-3.10059 -0.0732,0 q -1.24512,1.36719 -2.90528,2.0752 -1.63574,0.68359 -3.75976,0.68359 -0.97656,0 -2.09961,-0.21973 -1.12305,-0.21972 -2.24609,-0.73242 -1.12305,-0.53711 -2.14844,-1.3916 -1.02539,-0.87891 -1.80664,-2.17285 -0.78125,-1.31836 -1.26953,-3.10059 -0.46387,-1.78222 -0.46387,-4.12597 0,-3.24707 0.87891,-5.61524 0.8789,-2.39258 2.31933,-3.95508 1.44043,-1.5625 3.2959,-2.31933 1.85547,-0.78125 3.83301,-0.78125 z"
           style="fill:#535353;fill-opacity:0.64673911;stroke:none;stroke-opacity:1"
           id="path4978"
           inkscape:connector-curvature="0" />
        <path
           d="m 264.09412,356.92667 0.0732,0 q 0.63476,-0.80567 1.3916,-1.48926 0.78125,-0.70801 1.7334,-1.2207 0.95215,-0.53711 2.07519,-0.83008 1.14746,-0.29297 2.49024,-0.29297 1.58691,0 2.97851,0.43945 1.39161,0.43945 2.417,1.41602 1.02539,0.97656 1.61132,2.56347 0.61036,1.5625 0.61036,3.85743 l 0,15.52734 -3.78418,0 0,-14.91699 q 0,-3.00293 -1.17188,-4.32129 -1.14746,-1.31836 -3.36914,-1.31836 -1.95312,0 -3.78418,1.09863 -1.83105,1.07422 -3.14941,2.97852 l 0,16.47949 -3.78418,0 0,-23.19336 2.92968,0 0.73243,3.22266 z"
           style="fill:#535353;fill-opacity:0.64673911;stroke:none;stroke-opacity:1"
           id="path4980"
           inkscape:connector-curvature="0" />
        <path
           d="m 303.52283,365.3251 q 0,-2.14843 -0.53711,-3.80859 -0.5127,-1.68457 -1.46485,-2.83203 -0.92773,-1.17188 -2.22168,-1.75781 -1.29394,-0.61036 -2.83203,-0.61036 -1.53808,0 -2.83203,0.61036 -1.29394,0.58593 -2.24609,1.75781 -0.92774,1.14746 -1.46485,2.83203 -0.51269,1.66016 -0.51269,3.80859 0,2.12403 0.51269,3.8086 0.53711,1.66015 1.48926,2.80761 0.95215,1.14747 2.2461,1.75782 1.29394,0.58593 2.83203,0.58593 1.53808,0 2.80761,-0.58593 1.29395,-0.61035 2.22168,-1.75782 0.95215,-1.14746 1.46485,-2.80761 0.53711,-1.68457 0.53711,-3.8086 z m 3.95508,0 q 0,2.73438 -0.78125,4.98047 -0.78125,2.2461 -2.22168,3.85742 -1.41602,1.58692 -3.44239,2.46582 -2.02636,0.87891 -4.54101,0.87891 -2.58789,0 -4.63867,-0.87891 -2.02637,-0.8789 -3.4668,-2.46582 -1.41602,-1.61132 -2.17285,-3.85742 -0.75684,-2.24609 -0.75684,-4.98047 0,-2.75879 0.78125,-5.00488 0.78125,-2.24609 2.19727,-3.85742 1.44043,-1.61133 3.46679,-2.49024 2.05078,-0.8789 4.56543,-0.8789 2.56348,0 4.61426,0.8789 2.05078,0.87891 3.4668,2.49024 1.41601,1.61133 2.17285,3.85742 0.75684,2.24609 0.75684,5.00488 z"
           style="fill:#535353;fill-opacity:0.64673911;stroke:none;stroke-opacity:1"
           id="path4982"
           inkscape:connector-curvature="0" />
        <path
           d="m 316.07166,365.54483 q 0,2.00195 0.43945,3.6377 0.46387,1.61132 1.31836,2.75878 0.85449,1.12305 2.09961,1.7334 1.24511,0.61035 2.85644,0.61035 1.19629,0 2.17285,-0.31738 0.97657,-0.31738 1.7334,-0.80566 0.78125,-0.48828 1.31836,-1.02539 0.56153,-0.56153 0.87891,-1.02539 l 0,-12.13379 q -1.17188,-1.19629 -2.70996,-1.9043 -1.53809,-0.73242 -3.32032,-0.73242 -1.07421,0 -2.2705,0.41504 -1.17188,0.39062 -2.19727,1.44043 -1.00098,1.0498 -1.66016,2.83203 -0.65917,1.75781 -0.65917,4.5166 z m -3.95508,0.0488 q 0,-2.41699 0.46386,-4.27246 0.48829,-1.87989 1.26954,-3.27149 0.78125,-1.3916 1.83105,-2.31933 1.0498,-0.95215 2.17285,-1.53809 1.12305,-0.58594 2.27051,-0.83008 1.17187,-0.26855 2.19727,-0.26855 2.12402,0 3.68652,0.70801 1.5625,0.708 2.80762,2.07519 l 0.0732,0 0,-14.33105 3.78418,0 0,35.35156 -2.85645,0 -0.78125,-2.58789 -0.0977,0 q -0.43946,0.56152 -1.02539,1.14746 -0.58594,0.56152 -1.39161,1.02539 -0.78125,0.46387 -1.83105,0.73242 -1.02539,0.29297 -2.39258,0.29297 -1.9043,0 -3.73535,-0.63476 -1.83106,-0.65918 -3.27148,-2.0752 -1.41602,-1.44043 -2.29493,-3.68652 -0.8789,-2.27051 -0.8789,-5.51758 z"
           style="fill:#535353;fill-opacity:0.64673911;stroke:none;stroke-opacity:1"
           id="path4984"
           inkscape:connector-curvature="0" />
        <path
           d="m 349.29919,356.34073 q -1.29394,0 -2.41699,0.51269 -1.09863,0.5127 -1.92871,1.39161 -0.83008,0.8789 -1.34277,2.07519 -0.5127,1.17188 -0.63477,2.51465 l 11.71875,0 q 0,-1.36719 -0.36621,-2.53906 -0.3418,-1.19629 -1.02539,-2.0752 -0.68359,-0.8789 -1.68457,-1.36719 -1.00098,-0.51269 -2.31934,-0.51269 z m 2.0752,17.87109 q 1.87988,0 3.41797,-0.29297 1.5625,-0.31738 3.10058,-0.8789 l 0,3.14941 q -1.24511,0.61035 -3.07617,0.95215 -1.83105,0.36621 -3.93066,0.36621 -2.49024,0 -4.6875,-0.63476 -2.17285,-0.63477 -3.8086,-2.05079 -1.63574,-1.41601 -2.58789,-3.68652 -0.92773,-2.29492 -0.92773,-5.51758 0,-3.17383 0.87891,-5.49316 0.8789,-2.34375 2.34375,-3.90625 1.46484,-1.5625 3.36914,-2.34375 1.90429,-0.78125 3.97949,-0.78125 1.95312,0 3.63769,0.65918 1.70899,0.63476 2.95411,2.02637 1.24511,1.3916 1.95312,3.58886 0.73242,2.19727 0.73242,5.27344 0,0.29297 0,0.5127 0,0.19531 -0.0244,0.92773 l -15.91797,0 q 0,2.22168 0.65918,3.78418 0.68359,1.53809 1.83105,2.51465 1.17188,0.95215 2.73438,1.3916 1.5625,0.43945 3.36914,0.43945 z"
           style="fill:#535353;fill-opacity:0.64673911;stroke:none;stroke-opacity:1"
           id="path4986"
           inkscape:connector-curvature="0" />
        <path
           d="m 367.56091,359.88077 q 0,0.95215 0.41504,1.5625 0.41504,0.61035 1.09863,1.00097 0.70801,0.36622 1.61133,0.61036 0.92774,0.24414 1.9043,0.43945 1.34277,0.29297 2.53906,0.65918 1.19629,0.3418 2.19727,1.0498 1.02539,0.70801 1.63574,1.92871 0.63477,1.19629 0.63477,3.125 0,1.75782 -0.6836,3.125 -0.68359,1.34278 -1.92871,2.27051 -1.24512,0.90332 -2.97851,1.36719 -1.7334,0.48828 -3.8086,0.48828 -1.26953,0 -2.31933,-0.14648 -1.02539,-0.12207 -1.83106,-0.3418 -0.78125,-0.19531 -1.34277,-0.41504 -0.56153,-0.21973 -0.92774,-0.41504 l 0,-3.17383 q 1.46485,0.58594 2.90528,0.92774 1.44043,0.34179 3.17382,0.34179 1.36719,0 2.46583,-0.24414 1.09863,-0.24414 1.87988,-0.708 0.80566,-0.48828 1.2207,-1.19629 0.43945,-0.73242 0.43945,-1.68457 0,-0.97657 -0.39062,-1.61133 -0.39063,-0.63477 -1.04981,-1.04981 -0.65918,-0.41503 -1.53808,-0.68359 -0.85449,-0.26855 -1.80664,-0.48828 -1.24512,-0.26856 -2.53906,-0.63477 -1.26954,-0.36621 -2.31934,-1.02539 -1.04981,-0.65918 -1.70898,-1.78222 -0.63477,-1.14746 -0.63477,-2.92969 0,-1.83106 0.65918,-3.17383 0.65918,-1.34277 1.78223,-2.22168 1.12304,-0.87891 2.6123,-1.31836 1.48926,-0.43945 3.14941,-0.43945 1.92872,0 3.56446,0.36621 1.66015,0.36621 3.00293,0.92773 l 0,3.22266 q -1.46485,-0.56152 -2.97852,-0.90332 -1.48926,-0.36621 -3.07617,-0.39063 -1.34277,0 -2.29492,0.26856 -0.95215,0.26855 -1.5625,0.75684 -0.61035,0.46386 -0.90332,1.12304 -0.26856,0.63477 -0.26856,1.41602 z"
           style="fill:#535353;fill-opacity:0.64673911;stroke:none;stroke-opacity:1"
           id="path4988"
           inkscape:connector-curvature="0" />
      </g>
      <path
         transform="matrix(-0.88315981,0,0,0.9408097,550.53853,-1.322767)"
         style="fill:none;fill-rule:evenodd;stroke:#000080;stroke-width:1px;stroke-linecap:butt;stroke-linejoin:miter;stroke-opacity:1"
         d="m 286.78571,388.88434 c 0.31336,0.51929 -0.54539,0.67861 -0.8631,0.52083 -0.86096,-0.42756 -0.71883,-1.63064 -0.17857,-2.24702 0.9664,-1.10257 2.70063,-0.83084 3.63095,0.16369 1.36529,1.45951 0.95007,3.78654 -0.50595,5.01488 -1.94065,1.63718 -4.8783,1.07261 -6.39881,-0.84822 -1.91341,-2.41716 -1.19691,-5.97287 1.19048,-7.78273 2.89145,-2.19198 7.06906,-1.32225 9.16666,1.53274 2.47195,3.3645 1.44823,8.16624 -1.875,10.55059 -3.8368,2.75282 -9.26409,1.57464 -11.93452,-2.21726 -3.03431,-4.3086 -1.70135,-10.36242 2.55953,-13.31845 4.78006,-3.31622 11.46107,-1.82828 14.70237,2.90179 3.59846,5.25127 1.95538,12.55998 -3.24405,16.0863 -2.37303,1.60942 -5.28846,2.32819 -8.13871,2.04209"
         id="path4153"
         inkscape:connector-curvature="0" />
      <path
         transform="matrix(0.88656812,0,0,1.1266006,67.693526,-71.588147)"
         style="fill:none;fill-rule:evenodd;stroke:#000080;stroke-width:1px;stroke-linecap:butt;stroke-linejoin:miter;stroke-opacity:1"
         d="m 286.78571,388.88434 c 0.31336,0.51929 -0.54539,0.67861 -0.8631,0.52083 -0.86096,-0.42756 -0.71883,-1.63064 -0.17857,-2.24702 0.9664,-1.10257 2.70063,-0.83084 3.63095,0.16369 1.36529,1.45951 0.95007,3.78654 -0.50595,5.01488 -1.94065,1.63718 -4.8783,1.07261 -6.39881,-0.84822 -1.91341,-2.41716 -1.19691,-5.97287 1.19048,-7.78273 2.89145,-2.19198 7.06906,-1.32225 9.16666,1.53274 2.47195,3.3645 1.44823,8.16624 -1.875,10.55059 -3.8368,2.75282 -9.26409,1.57464 -11.93452,-2.21726 -3.03431,-4.3086 -1.70135,-10.36242 2.55953,-13.31845 4.78006,-3.31623 11.46107,-1.82829 14.70237,2.90178 0.61162,0.89254 1.09105,1.87448 1.42115,2.9048"
         id="path4161"
         inkscape:connector-curvature="0" />
      <path
         inkscape:connector-curvature="0"
         id="path4163"
         d="m 331.53814,375.64738 0,-33.39286"
         style="fill:none;fill-rule:evenodd;stroke:#000080;stroke-width:1;stroke-linecap:butt;stroke-linejoin:miter;stroke-opacity:1" />
      <path
         sodipodi:nodetypes="csccccc"
         inkscape:connector-curvature="0"
         id="path4167"
         d="m 350.39434,359.8438 c -0.17305,-0.13564 -1.6283,0.1169 -0.93627,0.78013 6.65827,6.3812 2.36896,-8.48824 -4.51585,-1.69146 -5.50944,6.28446 11.50058,8.16514 11.60534,3.41106 -1.82691,-13.84859 -17.11899,-8.42246 -16.02947,2.40016 0.35354,7.64537 3.73217,9.4732 7.26464,11.03762 2.76677,0.74715 6.31605,0.78501 9.01786,-0.75893"
         style="fill:none;fill-rule:evenodd;stroke:#000080;stroke-width:1px;stroke-linecap:butt;stroke-linejoin:miter;stroke-opacity:1" />
      <path
         sodipodi:nodetypes="cccc"
         inkscape:connector-curvature="0"
         id="path4203"
         d="m 377.60765,355.47956 c -11.87729,-4.38661 -15.75655,7.47892 -7.78992,9.09463 2.84555,0.97496 4.38047,0.4292 6.61081,2.52046 3.51829,3.25732 2.35392,10.0497 -10.75331,8.27228"
         style="fill:none;fill-rule:evenodd;stroke:#000080;stroke-width:1px;stroke-linecap:butt;stroke-linejoin:miter;stroke-opacity:1" />
      <path
         inkscape:connector-curvature="0"
         id="path4205"
         d="m 262.42559,375.46881 c 0,-20.625 0,-20.625 0,-20.625"
         style="fill:none;fill-rule:evenodd;stroke:#000080;stroke-width:1px;stroke-linecap:butt;stroke-linejoin:miter;stroke-opacity:1" />
      <path
         sodipodi:nodetypes="ccc"
         inkscape:connector-curvature="0"
         id="path4207"
         d="m 277.9613,375.82595 c -1.35959,-9.25629 3.76693,-19.47078 -6.07143,-21.69643 -4.1062,-0.28859 -7.12232,1.77292 -9.33035,4.6875"
         style="fill:none;fill-rule:evenodd;stroke:#000080;stroke-width:1px;stroke-linecap:butt;stroke-linejoin:miter;stroke-opacity:1" />
      <path
         transform="matrix(0.2126058,0.97713805,-0.97713805,0.2126058,579.4194,30.371835)"
         style="fill:none;fill-rule:evenodd;stroke:#800000;stroke-width:0.5;stroke-linecap:butt;stroke-linejoin:miter;stroke-opacity:1"
         d="m 253.6111,379.39626 c -0.43547,-0.006 -0.7275,-0.4327 -0.69401,-0.84262 0.0464,-0.56744 0.60677,-0.93765 1.14954,-0.87208 0.69929,0.0845 1.14888,0.78112 1.05016,1.45645 -0.12151,0.83116 -0.95563,1.36071 -1.76338,1.22823 -0.96306,-0.15795 -1.57288,-1.13021 -1.40629,-2.07029 0.19403,-1.09501 1.30484,-1.78529 2.3772,-1.58437 0.41617,0.078 0.80444,0.28091 1.1094,0.57417"
         id="path4209"
         inkscape:connector-curvature="0" />
      <path
         transform="matrix(-0.99582872,-0.09124224,0.09124224,-0.99582872,549.30019,762.33059)"
         style="fill:none;fill-rule:evenodd;stroke:#800000;stroke-width:0.5;stroke-linecap:butt;stroke-linejoin:miter;stroke-opacity:1"
         d="m 253.6111,379.39626 c -0.43547,-0.006 -0.7275,-0.4327 -0.69401,-0.84262 0.0464,-0.56744 0.60677,-0.93765 1.14954,-0.87208 0.69929,0.0845 1.14888,0.78112 1.05016,1.45645 -0.12151,0.83116 -0.95563,1.36071 -1.76338,1.22823 -0.96306,-0.15795 -1.57288,-1.13021 -1.40629,-2.07029 0.19403,-1.09501 1.30484,-1.78529 2.3772,-1.58437 0.41617,0.078 0.80444,0.28091 1.1094,0.57417"
         id="path4211"
         inkscape:connector-curvature="0" />
      <path
         transform="matrix(0.91013444,0,0,1.1454303,-28.731872,-78.702457)"
         style="fill:none;fill-rule:evenodd;stroke:#000080;stroke-width:1px;stroke-linecap:butt;stroke-linejoin:miter;stroke-opacity:1"
         d="m 286.78571,388.88434 c 0.31336,0.51929 -0.54539,0.67861 -0.8631,0.52083 -0.86096,-0.42756 -0.71883,-1.63064 -0.17857,-2.24702 0.9664,-1.10257 2.70063,-0.83084 3.63095,0.16369 1.36529,1.45951 0.95007,3.78654 -0.50595,5.01488 -1.94065,1.63718 -4.8783,1.07261 -6.39881,-0.84822 -1.91341,-2.41716 -1.19692,-5.97288 1.19048,-7.78273 2.89145,-2.19199 7.06906,-1.32225 9.16666,1.53274 2.47196,3.3645 1.44823,8.16624 -1.875,10.55059 -3.8368,2.75283 -9.2641,1.57464 -11.93452,-2.21726 -3.03431,-4.3086 -1.70136,-10.36242 2.55952,-13.31846 4.78007,-3.31622 11.46108,-1.82828 14.70239,2.90179 0.28512,0.41609 0.54175,0.85166 0.76775,1.30259"
         id="path4213"
         inkscape:connector-curvature="0" />
      <path
         sodipodi:nodetypes="ccc"
         inkscape:connector-curvature="0"
         id="path4215"
         d="m 241.62201,354.57595 0,25.26786 c -1.35311,6.37651 -12.55513,9.8179 -17.00892,5.625"
         style="fill:none;fill-rule:evenodd;stroke:#000080;stroke-width:1px;stroke-linecap:butt;stroke-linejoin:miter;stroke-opacity:1" />
      <path
         transform="matrix(-0.95562588,-0.29458305,0.29458305,-0.95562588,372.46266,797.07013)"
         style="fill:none;fill-rule:evenodd;stroke:#800000;stroke-width:0.5;stroke-linecap:butt;stroke-linejoin:miter;stroke-opacity:1"
         d="m 253.6111,379.39626 c -0.43547,-0.006 -0.7275,-0.4327 -0.69401,-0.84262 0.0464,-0.56744 0.60677,-0.93765 1.14954,-0.87208 0.69929,0.0845 1.14888,0.78112 1.05016,1.45645 -0.12151,0.83116 -0.95563,1.36071 -1.76338,1.22823 -0.96306,-0.15795 -1.57288,-1.13021 -1.40629,-2.07029 0.19403,-1.09501 1.30484,-1.78529 2.3772,-1.58437 0.41617,0.078 0.80444,0.28091 1.1094,0.57417"
         id="path4701"
         inkscape:connector-curvature="0" />
      <path
         style="fill:none;fill-rule:evenodd;stroke:#000080;stroke-width:1px;stroke-linecap:butt;stroke-linejoin:miter;stroke-opacity:1"
         d="m 134.41342,355.47956 c -11.87729,-4.38661 -15.75655,7.47892 -7.78992,9.09463 2.84555,0.97496 4.38047,0.4292 6.61081,2.52046 3.51829,3.25732 2.35392,10.0497 -10.75331,8.27228"
         id="path4703"
         inkscape:connector-curvature="0"
         sodipodi:nodetypes="cccc" />
      <path
         transform="matrix(-0.9127839,0,0,-1.0932106,414.00508,789.01758)"
         style="fill:none;fill-rule:evenodd;stroke:#000080;stroke-width:1px;stroke-linecap:butt;stroke-linejoin:miter;stroke-opacity:1"
         d="m 286.78571,388.88434 c 0.31336,0.51929 -0.54539,0.67861 -0.8631,0.52083 -0.86096,-0.42756 -0.71883,-1.63064 -0.17857,-2.24702 0.9664,-1.10257 2.70063,-0.83084 3.63095,0.16369 1.36529,1.45951 0.95007,3.78654 -0.50595,5.01488 -1.94065,1.63718 -4.8783,1.07261 -6.39881,-0.84822 -1.91341,-2.41716 -1.19691,-5.97287 1.19048,-7.78273 2.89145,-2.19198 7.06906,-1.32225 9.16666,1.53274 2.47195,3.3645 1.44823,8.16624 -1.875,10.55059 -3.8368,2.75282 -9.26409,1.57464 -11.93452,-2.21726 -3.03431,-4.3086 -1.70135,-10.36242 2.55953,-13.31845 4.68137,-3.24776 11.21864,-1.89644 14.52399,2.64912"
         id="path4705"
         inkscape:connector-curvature="0" />
      <path
         style="fill:none;fill-rule:evenodd;stroke:#000080;stroke-width:1;stroke-linecap:butt;stroke-linejoin:miter;stroke-opacity:1"
         d="m 143.58831,354.16523 0,33.39286"
         id="path4707"
         inkscape:connector-curvature="0" />
      <path
         transform="matrix(0.99582872,0.09124224,-0.09124224,0.99582872,-73.816601,-29.348335)"
         style="fill:none;fill-rule:evenodd;stroke:#800000;stroke-width:0.5;stroke-linecap:butt;stroke-linejoin:miter;stroke-opacity:1"
         d="m 253.6111,379.39626 c -0.43547,-0.006 -0.7275,-0.4327 -0.69401,-0.84262 0.0464,-0.56744 0.60677,-0.93765 1.14954,-0.87208 0.69929,0.0845 1.14888,0.78112 1.05016,1.45645 -0.12151,0.83116 -0.95563,1.36071 -1.76338,1.22823 -0.96306,-0.15795 -1.57288,-1.13021 -1.40629,-2.07029 0.19403,-1.09501 1.30484,-1.78529 2.3772,-1.58437 0.41617,0.078 0.80444,0.28091 1.1094,0.57417"
         id="path4709"
         inkscape:connector-curvature="0" />
      <path
         style="fill:none;fill-rule:evenodd;stroke:#800000;stroke-width:0.5;stroke-linecap:butt;stroke-linejoin:miter;stroke-opacity:1"
         d="m 253.6111,379.39626 c -0.43547,-0.006 -0.7275,-0.4327 -0.69401,-0.84263 0.0464,-0.56743 0.60677,-0.93764 1.14954,-0.87207 0.69929,0.0845 1.14888,0.78112 1.05016,1.45645 -0.12151,0.83116 -0.95563,1.36071 -1.76338,1.22823 -0.96307,-0.15796 -1.57288,-1.13021 -1.40629,-2.07029 0.19404,-1.09501 1.30484,-1.7853 2.3772,-1.58437 1.22698,0.2299 1.99786,1.47952 1.76244,2.68412 -0.26559,1.35897 -1.65422,2.21055 -2.99104,1.94051 -1.49097,-0.30117 -2.42331,-1.82894 -2.11858,-3.29795 0.33667,-1.623 2.00367,-2.63614 3.60487,-2.29666 1.75503,0.3721 2.84902,2.17843 2.47473,3.91179 -0.40748,1.88706 -2.35318,3.06194 -4.21871,2.6528 -2.0191,-0.44282 -3.27488,-2.52795 -2.83087,-4.52562 0.30067,-1.35273 1.32416,-2.46369 2.63561,-2.90064"
         id="path4711"
         transform="matrix(0.99582872,0.09124224,-0.09124224,0.99582872,-30.155887,-54.169763)"
         inkscape:connector-curvature="0" />
      <path
         style="fill:none;fill-rule:evenodd;stroke:#000080;stroke-width:0.75;stroke-linecap:round;stroke-linejoin:round;stroke-opacity:1"
         d="m 186.08904,374.94533 c 1.01879,0.82106 2.80344,0.80387 4.05771,0.37171"
         id="path4715"
         inkscape:connector-curvature="0"
         sodipodi:nodetypes="cc" />
      <path
         style="fill:none;fill-rule:evenodd;stroke:#000080;stroke-width:0.75;stroke-linecap:round;stroke-linejoin:round;stroke-opacity:1"
         d="m 186.08904,374.82925 c 1.91926,-0.0298 3.28529,-0.37566 4.02614,-1.0788"
         id="path4725"
         inkscape:connector-curvature="0"
         sodipodi:nodetypes="cc" />
      <path
         sodipodi:nodetypes="cc"
         inkscape:connector-curvature="0"
         id="path4727"
         d="m 186.08904,373.39033 c 1.91926,-0.0298 3.28529,-0.37566 4.02614,-1.0788"
         style="fill:none;fill-rule:evenodd;stroke:#000080;stroke-width:0.75;stroke-linecap:round;stroke-linejoin:round;stroke-opacity:1" />
      <path
         style="fill:none;fill-rule:evenodd;stroke:#000080;stroke-width:0.75;stroke-linecap:round;stroke-linejoin:round;stroke-opacity:1"
         d="m 186.08904,371.95148 c 1.91926,-0.0298 3.28529,-0.37566 4.02614,-1.0788"
         id="path4729"
         inkscape:connector-curvature="0"
         sodipodi:nodetypes="cc" />
      <path
         sodipodi:nodetypes="cc"
         inkscape:connector-curvature="0"
         id="path4731"
         d="m 186.08904,370.51258 c 1.91926,-0.0298 3.28529,-0.37566 4.02614,-1.0788"
         style="fill:none;fill-rule:evenodd;stroke:#000080;stroke-width:0.75;stroke-linecap:round;stroke-linejoin:round;stroke-opacity:1" />
      <path
         style="fill:none;fill-rule:evenodd;stroke:#000080;stroke-width:0.75;stroke-linecap:round;stroke-linejoin:round;stroke-opacity:1"
         d="m 186.08904,369.07378 c 1.91926,-0.0298 3.28529,-0.37566 4.02614,-1.0788"
         id="path4733"
         inkscape:connector-curvature="0"
         sodipodi:nodetypes="cc" />
      <path
         style="fill:none;fill-rule:evenodd;stroke:#000080;stroke-width:0.75;stroke-linecap:round;stroke-linejoin:round;stroke-opacity:1"
         d="m 186.08904,367.63486 c 1.91926,-0.0298 3.28529,-0.37566 4.02614,-1.0788"
         id="path4752"
         inkscape:connector-curvature="0"
         sodipodi:nodetypes="cc" />
      <path
         sodipodi:nodetypes="cc"
         inkscape:connector-curvature="0"
         id="path4754"
         d="m 186.08904,366.19601 c 1.91926,-0.0298 3.28529,-0.37566 4.02614,-1.0788"
         style="fill:none;fill-rule:evenodd;stroke:#000080;stroke-width:0.75;stroke-linecap:round;stroke-linejoin:round;stroke-opacity:1" />
      <path
         style="fill:none;fill-rule:evenodd;stroke:#000080;stroke-width:0.75;stroke-linecap:round;stroke-linejoin:round;stroke-opacity:1"
         d="m 186.08904,364.75711 c 1.91926,-0.0298 3.28529,-0.37566 4.02614,-1.0788"
         id="path4756"
         inkscape:connector-curvature="0"
         sodipodi:nodetypes="cc" />
      <path
         sodipodi:nodetypes="cc"
         inkscape:connector-curvature="0"
         id="path4758"
         d="m 186.08904,363.31824 c 1.91926,-0.0298 3.28529,-0.37566 4.02614,-1.0788"
         style="fill:none;fill-rule:evenodd;stroke:#000080;stroke-width:0.75;stroke-linecap:round;stroke-linejoin:round;stroke-opacity:1" />
      <path
         sodipodi:nodetypes="cc"
         inkscape:connector-curvature="0"
         id="path4760"
         d="m 186.08904,361.87936 c 1.91926,-0.0298 3.28529,-0.37566 4.02614,-1.0788"
         style="fill:none;fill-rule:evenodd;stroke:#000080;stroke-width:0.75;stroke-linecap:round;stroke-linejoin:round;stroke-opacity:1" />
      <path
         style="fill:none;fill-rule:evenodd;stroke:#000080;stroke-width:0.75;stroke-linecap:round;stroke-linejoin:round;stroke-opacity:1"
         d="m 186.08904,360.44052 c 1.91926,-0.0298 3.28529,-0.37566 4.02614,-1.0788"
         id="path4762"
         inkscape:connector-curvature="0"
         sodipodi:nodetypes="cc" />
      <path
         sodipodi:nodetypes="cc"
         inkscape:connector-curvature="0"
         id="path4764"
         d="m 186.08904,359.00159 c 1.91926,-0.0298 3.28529,-0.37566 4.02614,-1.0788"
         style="fill:none;fill-rule:evenodd;stroke:#000080;stroke-width:0.75;stroke-linecap:round;stroke-linejoin:round;stroke-opacity:1" />
      <path
         sodipodi:nodetypes="cc"
         inkscape:connector-curvature="0"
         id="path4766"
         d="m 186.08904,357.56274 c 1.91926,-0.0298 3.28529,-0.37566 4.02614,-1.0788"
         style="fill:none;fill-rule:evenodd;stroke:#000080;stroke-width:0.75;stroke-linecap:round;stroke-linejoin:round;stroke-opacity:1" />
      <path
         style="fill:none;fill-rule:evenodd;stroke:#000080;stroke-width:0.75;stroke-linecap:round;stroke-linejoin:round;stroke-opacity:1"
         d="m 186.08904,356.12389 c 1.91926,-0.0298 3.28529,-0.37566 4.02614,-1.0788"
         id="path4768"
         inkscape:connector-curvature="0"
         sodipodi:nodetypes="cc" />
      <path
         sodipodi:nodetypes="cc"
         inkscape:connector-curvature="0"
         id="path4774"
         d="m 186.08904,354.61601 c 1.01879,0.82106 2.80344,0.80387 4.05771,0.37171"
         style="fill:none;fill-rule:evenodd;stroke:#000080;stroke-width:0.75;stroke-linecap:round;stroke-linejoin:round;stroke-opacity:1" />
      <path
         style="fill:none;fill-rule:evenodd;stroke:#000080;stroke-width:1px;stroke-linecap:butt;stroke-linejoin:miter;stroke-opacity:1"
         d="m 199.38988,375.46881 c 0,-20.625 0,-20.625 0,-20.625"
         id="path4776"
         inkscape:connector-curvature="0" />
      <path
         style="fill:none;fill-rule:evenodd;stroke:#000080;stroke-width:1px;stroke-linecap:butt;stroke-linejoin:miter;stroke-opacity:1"
         d="m 214.92559,375.82595 c -1.35959,-9.25629 3.76693,-19.47078 -6.07143,-21.69643 -4.1062,-0.28859 -7.12232,1.77292 -9.33035,4.6875"
         id="path4778"
         inkscape:connector-curvature="0"
         sodipodi:nodetypes="ccc" />
      <path
         transform="matrix(0.2126058,0.97713805,-0.97713805,0.2126058,516.38369,30.371835)"
         style="fill:none;fill-rule:evenodd;stroke:#800000;stroke-width:0.5;stroke-linecap:butt;stroke-linejoin:miter;stroke-opacity:1"
         d="m 253.6111,379.39626 c -0.43547,-0.006 -0.7275,-0.4327 -0.69401,-0.84262 0.0464,-0.56744 0.60677,-0.93765 1.14954,-0.87208 0.69929,0.0845 1.14888,0.78112 1.05016,1.45645 -0.12151,0.83116 -0.95563,1.36071 -1.76338,1.22823 -0.96306,-0.15795 -1.57288,-1.13021 -1.40629,-2.07029 0.19403,-1.09501 1.30484,-1.78529 2.3772,-1.58437 0.41617,0.078 0.80444,0.28091 1.1094,0.57417"
         id="path4780"
         inkscape:connector-curvature="0" />
      <path
         inkscape:connector-curvature="0"
         id="path4782"
         d="m 170.85307,375.46881 c 0,-20.625 0,-20.625 0,-20.625"
         style="fill:none;fill-rule:evenodd;stroke:#000080;stroke-width:1px;stroke-linecap:butt;stroke-linejoin:miter;stroke-opacity:1" />
      <path
         sodipodi:nodetypes="cc"
         inkscape:connector-curvature="0"
         id="path4827"
         d="m 180.7738,354.75452 c -1.71631,-1.33504 -7.37665,2.56395 -9.98472,5.76468"
         style="fill:none;fill-rule:evenodd;stroke:#000080;stroke-width:1px;stroke-linecap:butt;stroke-linejoin:miter;stroke-opacity:1" />
    </g>
  </g>
</svg>
